<mxfile host="app.diagrams.net" agent="Mozilla/5.0 (Windows NT 10.0; Win64; x64) AppleWebKit/537.36 (KHTML, like Gecko) Chrome/131.0.0.0 Safari/537.36" version="25.0.1">
  <diagram name="Seite-1" id="doIcr9dZKpBIJAQc-s5b">
    <mxGraphModel dx="791" dy="694" grid="1" gridSize="10" guides="1" tooltips="1" connect="1" arrows="1" fold="1" page="1" pageScale="1" pageWidth="1654" pageHeight="1169" math="0" shadow="0">
      <root>
        <mxCell id="0" />
        <mxCell id="1" parent="0" />
        <mxCell id="RFZZks00Yh5t1Ho3ZFFj-1" value="Sequenz" style="rounded=0;whiteSpace=wrap;html=1;fillColor=#FFE599;strokeColor=#d6b656;fontSize=14;" vertex="1" parent="1">
          <mxGeometry x="301.25" y="80" width="240" height="40" as="geometry" />
        </mxCell>
        <mxCell id="RFZZks00Yh5t1Ho3ZFFj-2" value="" style="rounded=0;whiteSpace=wrap;html=1;fillColor=#fff2cc;strokeColor=#d6b656;" vertex="1" parent="1">
          <mxGeometry x="301.25" y="120" width="240" height="380" as="geometry" />
        </mxCell>
        <mxCell id="RFZZks00Yh5t1Ho3ZFFj-3" value="Steuerungsmethoden / Eigenschaften" style="text;html=1;align=left;verticalAlign=middle;whiteSpace=wrap;rounded=0;fontStyle=4" vertex="1" parent="1">
          <mxGeometry x="311.25" y="120" width="220" height="30" as="geometry" />
        </mxCell>
        <mxCell id="RFZZks00Yh5t1Ho3ZFFj-4" value="" style="rounded=0;whiteSpace=wrap;html=1;fillColor=none;strokeColor=none;" vertex="1" parent="1">
          <mxGeometry x="311.25" y="150" width="220" height="20" as="geometry" />
        </mxCell>
        <mxCell id="RFZZks00Yh5t1Ho3ZFFj-5" value="" style="rounded=0;whiteSpace=wrap;html=1;fillColor=none;strokeColor=none;" vertex="1" parent="1">
          <mxGeometry x="311.25" y="170" width="220" height="20" as="geometry" />
        </mxCell>
        <mxCell id="RFZZks00Yh5t1Ho3ZFFj-6" value="" style="rounded=0;whiteSpace=wrap;html=1;fillColor=none;strokeColor=none;" vertex="1" parent="1">
          <mxGeometry x="311.25" y="190" width="220" height="20" as="geometry" />
        </mxCell>
        <mxCell id="RFZZks00Yh5t1Ho3ZFFj-7" value="" style="rounded=0;whiteSpace=wrap;html=1;fillColor=none;strokeColor=none;" vertex="1" parent="1">
          <mxGeometry x="311.25" y="210" width="220" height="20" as="geometry" />
        </mxCell>
        <mxCell id="RFZZks00Yh5t1Ho3ZFFj-8" value="" style="rounded=0;whiteSpace=wrap;html=1;fillColor=none;strokeColor=none;" vertex="1" parent="1">
          <mxGeometry x="311.25" y="230" width="220" height="20" as="geometry" />
        </mxCell>
        <mxCell id="RFZZks00Yh5t1Ho3ZFFj-9" value="Betriebsvariablen" style="text;html=1;align=left;verticalAlign=middle;whiteSpace=wrap;rounded=0;fontStyle=4" vertex="1" parent="1">
          <mxGeometry x="311.25" y="265" width="120" height="30" as="geometry" />
        </mxCell>
        <mxCell id="RFZZks00Yh5t1Ho3ZFFj-10" value="" style="rounded=0;whiteSpace=wrap;html=1;fillColor=none;strokeColor=none;" vertex="1" parent="1">
          <mxGeometry x="311.25" y="295" width="220" height="20" as="geometry" />
        </mxCell>
        <mxCell id="RFZZks00Yh5t1Ho3ZFFj-11" value="" style="endArrow=none;html=1;rounded=0;strokeWidth=2;" edge="1" parent="1" source="RFZZks00Yh5t1Ho3ZFFj-10">
          <mxGeometry width="50" height="50" relative="1" as="geometry">
            <mxPoint x="351.25" y="365" as="sourcePoint" />
            <mxPoint x="291.25" y="305" as="targetPoint" />
          </mxGeometry>
        </mxCell>
        <mxCell id="RFZZks00Yh5t1Ho3ZFFj-12" value="iSysCommand &lt;i&gt;(FÃ¼r Resett)&lt;/i&gt;" style="text;html=1;align=left;verticalAlign=middle;whiteSpace=wrap;rounded=0;fontStyle=0;fontSize=10;" vertex="1" parent="1">
          <mxGeometry x="315.25" y="300" width="204.75" height="10" as="geometry" />
        </mxCell>
        <mxCell id="RFZZks00Yh5t1Ho3ZFFj-13" value="" style="rounded=0;whiteSpace=wrap;html=1;fillColor=none;strokeColor=none;" vertex="1" parent="1">
          <mxGeometry x="311.25" y="315" width="220" height="20" as="geometry" />
        </mxCell>
        <mxCell id="RFZZks00Yh5t1Ho3ZFFj-14" value="" style="endArrow=none;html=1;rounded=0;strokeWidth=2;" edge="1" parent="1" source="RFZZks00Yh5t1Ho3ZFFj-13">
          <mxGeometry width="50" height="50" relative="1" as="geometry">
            <mxPoint x="351.25" y="385" as="sourcePoint" />
            <mxPoint x="291.25" y="325" as="targetPoint" />
          </mxGeometry>
        </mxCell>
        <mxCell id="RFZZks00Yh5t1Ho3ZFFj-15" value="fbSkill" style="text;html=1;align=left;verticalAlign=middle;whiteSpace=wrap;rounded=0;fontStyle=0;fontSize=10;" vertex="1" parent="1">
          <mxGeometry x="315.25" y="320" width="76" height="10" as="geometry" />
        </mxCell>
        <mxCell id="RFZZks00Yh5t1Ho3ZFFj-19" value="Prozesseigenschaften" style="text;html=1;align=left;verticalAlign=middle;whiteSpace=wrap;rounded=0;fontStyle=4" vertex="1" parent="1">
          <mxGeometry x="311.25" y="428" width="120" height="30" as="geometry" />
        </mxCell>
        <mxCell id="RFZZks00Yh5t1Ho3ZFFj-20" value="" style="rounded=0;whiteSpace=wrap;html=1;fillColor=none;strokeColor=none;" vertex="1" parent="1">
          <mxGeometry x="311.25" y="453" width="220" height="20" as="geometry" />
        </mxCell>
        <mxCell id="RFZZks00Yh5t1Ho3ZFFj-21" style="edgeStyle=orthogonalEdgeStyle;rounded=0;orthogonalLoop=1;jettySize=auto;html=1;endArrow=none;endFill=0;strokeWidth=2;" edge="1" parent="1" source="RFZZks00Yh5t1Ho3ZFFj-22">
          <mxGeometry relative="1" as="geometry">
            <mxPoint x="551.25" y="247.5" as="targetPoint" />
          </mxGeometry>
        </mxCell>
        <mxCell id="RFZZks00Yh5t1Ho3ZFFj-22" value="&lt;font style=&quot;font-size: 10px;&quot;&gt;P_State (GET)&lt;/font&gt;" style="rounded=0;whiteSpace=wrap;html=1;fillColor=#FFE599;strokeColor=#d6b656;fontSize=14;" vertex="1" parent="1">
          <mxGeometry x="315.25" y="235" width="220" height="25" as="geometry" />
        </mxCell>
        <mxCell id="RFZZks00Yh5t1Ho3ZFFj-23" value="" style="endArrow=none;html=1;rounded=0;fillColor=#fff2cc;strokeColor=#d6b656;entryX=1;entryY=0.464;entryDx=0;entryDy=0;entryPerimeter=0;exitX=0;exitY=0.466;exitDx=0;exitDy=0;exitPerimeter=0;strokeWidth=1;dashed=1;" edge="1" parent="1">
          <mxGeometry width="50" height="50" relative="1" as="geometry">
            <mxPoint x="301.25" y="265.28999999999996" as="sourcePoint" />
            <mxPoint x="541.25" y="264.71000000000004" as="targetPoint" />
          </mxGeometry>
        </mxCell>
        <mxCell id="RFZZks00Yh5t1Ho3ZFFj-24" value="" style="endArrow=none;html=1;rounded=0;fillColor=#fff2cc;strokeColor=#d6b656;exitX=0;exitY=0.792;exitDx=0;exitDy=0;exitPerimeter=0;strokeWidth=1;dashed=1;entryX=1;entryY=0.793;entryDx=0;entryDy=0;entryPerimeter=0;" edge="1" parent="1">
          <mxGeometry width="50" height="50" relative="1" as="geometry">
            <mxPoint x="301.25" y="427.9999999999999" as="sourcePoint" />
            <mxPoint x="541.25" y="428.2900000000001" as="targetPoint" />
          </mxGeometry>
        </mxCell>
        <mxCell id="RFZZks00Yh5t1Ho3ZFFj-25" value="Arbeitsplan&amp;nbsp;" style="rounded=0;whiteSpace=wrap;html=1;rotation=-90;fillColor=#fff2cc;strokeColor=#d6b656;" vertex="1" parent="1">
          <mxGeometry x="161.25" y="150" width="110" height="30" as="geometry" />
        </mxCell>
        <mxCell id="RFZZks00Yh5t1Ho3ZFFj-27" value="Arbeitsplan" style="rounded=0;whiteSpace=wrap;html=1;rotation=-90;fillColor=#fff2cc;strokeColor=#d6b656;" vertex="1" parent="1">
          <mxGeometry x="571.25" y="150" width="110" height="30" as="geometry" />
        </mxCell>
        <mxCell id="RFZZks00Yh5t1Ho3ZFFj-28" value="Skill" style="rounded=0;whiteSpace=wrap;html=1;rotation=-90;fillColor=#fff2cc;strokeColor=#d6b656;" vertex="1" parent="1">
          <mxGeometry x="160" y="271" width="110" height="30" as="geometry" />
        </mxCell>
        <mxCell id="RFZZks00Yh5t1Ho3ZFFj-29" value="Systemparameter" style="rounded=0;whiteSpace=wrap;html=1;rotation=-90;fillColor=#f5f5f5;fontColor=#333333;strokeColor=#666666;" vertex="1" parent="1">
          <mxGeometry x="162.5" y="390" width="107.5" height="30" as="geometry" />
        </mxCell>
        <mxCell id="RFZZks00Yh5t1Ho3ZFFj-31" value="" style="endArrow=classic;html=1;rounded=0;endFill=1;startSize=4;endSize=3;fillColor=#dae8fc;strokeColor=#6c8ebf;" edge="1" parent="1">
          <mxGeometry width="50" height="50" relative="1" as="geometry">
            <mxPoint x="271.25" y="324.96000000000004" as="sourcePoint" />
            <mxPoint x="281.25" y="324.8800000000001" as="targetPoint" />
          </mxGeometry>
        </mxCell>
        <mxCell id="RFZZks00Yh5t1Ho3ZFFj-33" value="" style="endArrow=none;html=1;rounded=0;" edge="1" parent="1">
          <mxGeometry width="50" height="50" relative="1" as="geometry">
            <mxPoint x="241.25" y="304.91999999999996" as="sourcePoint" />
            <mxPoint x="281.25" y="305" as="targetPoint" />
          </mxGeometry>
        </mxCell>
        <mxCell id="RFZZks00Yh5t1Ho3ZFFj-36" value="" style="endArrow=none;html=1;rounded=0;" edge="1" parent="1">
          <mxGeometry width="50" height="50" relative="1" as="geometry">
            <mxPoint x="241.25" y="305" as="sourcePoint" />
            <mxPoint x="241.25" y="390" as="targetPoint" />
          </mxGeometry>
        </mxCell>
        <mxCell id="RFZZks00Yh5t1Ho3ZFFj-37" value="" style="endArrow=none;html=1;rounded=0;" edge="1" parent="1">
          <mxGeometry width="50" height="50" relative="1" as="geometry">
            <mxPoint x="241.25" y="389.89" as="sourcePoint" />
            <mxPoint x="231.25" y="389.89" as="targetPoint" />
          </mxGeometry>
        </mxCell>
        <mxCell id="RFZZks00Yh5t1Ho3ZFFj-38" value="" style="endArrow=none;html=1;rounded=0;fillColor=#dae8fc;strokeColor=#6c8ebf;" edge="1" parent="1">
          <mxGeometry width="50" height="50" relative="1" as="geometry">
            <mxPoint x="591.25" y="248" as="sourcePoint" />
            <mxPoint x="591.25" y="170" as="targetPoint" />
          </mxGeometry>
        </mxCell>
        <mxCell id="RFZZks00Yh5t1Ho3ZFFj-40" value="" style="endArrow=none;html=1;rounded=0;fillColor=#dae8fc;strokeColor=#6c8ebf;" edge="1" parent="1">
          <mxGeometry width="50" height="50" relative="1" as="geometry">
            <mxPoint x="261.25" y="473" as="sourcePoint" />
            <mxPoint x="281.25" y="473.1400000000001" as="targetPoint" />
          </mxGeometry>
        </mxCell>
        <mxCell id="RFZZks00Yh5t1Ho3ZFFj-41" value="" style="endArrow=none;html=1;rounded=0;fillColor=#dae8fc;strokeColor=#6c8ebf;" edge="1" parent="1">
          <mxGeometry width="50" height="50" relative="1" as="geometry">
            <mxPoint x="261.25" y="473" as="sourcePoint" />
            <mxPoint x="261.25" y="330" as="targetPoint" />
          </mxGeometry>
        </mxCell>
        <mxCell id="RFZZks00Yh5t1Ho3ZFFj-42" value="" style="endArrow=none;html=1;rounded=0;fillColor=#dae8fc;strokeColor=#6c8ebf;" edge="1" parent="1">
          <mxGeometry width="50" height="50" relative="1" as="geometry">
            <mxPoint x="261.25" y="308" as="sourcePoint" />
            <mxPoint x="261.25" y="320" as="targetPoint" />
          </mxGeometry>
        </mxCell>
        <mxCell id="RFZZks00Yh5t1Ho3ZFFj-43" value="" style="endArrow=none;html=1;rounded=0;fillColor=#dae8fc;strokeColor=#6c8ebf;" edge="1" parent="1">
          <mxGeometry width="50" height="50" relative="1" as="geometry">
            <mxPoint x="261.25" y="200" as="sourcePoint" />
            <mxPoint x="261.25" y="300" as="targetPoint" />
          </mxGeometry>
        </mxCell>
        <mxCell id="RFZZks00Yh5t1Ho3ZFFj-44" value="" style="endArrow=none;html=1;rounded=0;fillColor=#dae8fc;strokeColor=#6c8ebf;" edge="1" parent="1">
          <mxGeometry width="50" height="50" relative="1" as="geometry">
            <mxPoint x="261.25" y="199.92000000000002" as="sourcePoint" />
            <mxPoint x="231.25" y="199.84000000000003" as="targetPoint" />
          </mxGeometry>
        </mxCell>
        <mxCell id="RFZZks00Yh5t1Ho3ZFFj-46" value="2" style="ellipse;whiteSpace=wrap;html=1;aspect=fixed;fontSize=6;fillColor=#f5f5f5;fontColor=#333333;strokeColor=#666666;" vertex="1" parent="1">
          <mxGeometry x="286.25" y="290" width="10" height="10" as="geometry" />
        </mxCell>
        <mxCell id="RFZZks00Yh5t1Ho3ZFFj-47" value="1" style="ellipse;whiteSpace=wrap;html=1;aspect=fixed;fontSize=6;fillColor=#f5f5f5;fontColor=#333333;strokeColor=#666666;" vertex="1" parent="1">
          <mxGeometry x="286.25" y="310" width="10" height="10" as="geometry" />
        </mxCell>
        <mxCell id="RFZZks00Yh5t1Ho3ZFFj-49" value="1" style="ellipse;whiteSpace=wrap;html=1;aspect=fixed;fontSize=6;fillColor=#f5f5f5;fontColor=#333333;strokeColor=#666666;" vertex="1" parent="1">
          <mxGeometry x="286.25" y="143" width="10" height="10" as="geometry" />
        </mxCell>
        <mxCell id="RFZZks00Yh5t1Ho3ZFFj-50" value="1" style="ellipse;whiteSpace=wrap;html=1;aspect=fixed;fontSize=6;fillColor=#f5f5f5;fontColor=#333333;strokeColor=#666666;" vertex="1" parent="1">
          <mxGeometry x="286.25" y="458" width="10" height="10" as="geometry" />
        </mxCell>
        <mxCell id="RFZZks00Yh5t1Ho3ZFFj-51" style="edgeStyle=orthogonalEdgeStyle;rounded=0;orthogonalLoop=1;jettySize=auto;html=1;endArrow=none;endFill=0;strokeWidth=2;" edge="1" parent="1" source="RFZZks00Yh5t1Ho3ZFFj-52">
          <mxGeometry relative="1" as="geometry">
            <mxPoint x="291.25" y="157.5" as="targetPoint" />
          </mxGeometry>
        </mxCell>
        <mxCell id="RFZZks00Yh5t1Ho3ZFFj-52" value="&lt;font style=&quot;font-size: 10px;&quot;&gt;M_Start&lt;/font&gt;" style="rounded=0;whiteSpace=wrap;html=1;fillColor=#FFE599;strokeColor=#d6b656;fontSize=14;" vertex="1" parent="1">
          <mxGeometry x="315.25" y="145" width="220" height="25" as="geometry" />
        </mxCell>
        <mxCell id="RFZZks00Yh5t1Ho3ZFFj-54" value="&lt;font style=&quot;font-size: 10px;&quot;&gt;M_Stopp (intern)&lt;/font&gt;" style="rounded=0;whiteSpace=wrap;html=1;fillColor=#FFE599;strokeColor=#d6b656;fontSize=14;" vertex="1" parent="1">
          <mxGeometry x="315.25" y="175" width="220" height="25" as="geometry" />
        </mxCell>
        <mxCell id="RFZZks00Yh5t1Ho3ZFFj-55" style="edgeStyle=orthogonalEdgeStyle;rounded=0;orthogonalLoop=1;jettySize=auto;html=1;endArrow=none;endFill=0;strokeWidth=2;" edge="1" parent="1" source="RFZZks00Yh5t1Ho3ZFFj-56">
          <mxGeometry relative="1" as="geometry">
            <mxPoint x="291.25" y="217.5" as="targetPoint" />
          </mxGeometry>
        </mxCell>
        <mxCell id="RFZZks00Yh5t1Ho3ZFFj-56" value="&lt;font style=&quot;font-size: 10px;&quot;&gt;M_Reset&lt;/font&gt;" style="rounded=0;whiteSpace=wrap;html=1;fillColor=#FFE599;strokeColor=#d6b656;fontSize=14;" vertex="1" parent="1">
          <mxGeometry x="315.25" y="205" width="220" height="25" as="geometry" />
        </mxCell>
        <mxCell id="RFZZks00Yh5t1Ho3ZFFj-60" style="edgeStyle=orthogonalEdgeStyle;rounded=0;orthogonalLoop=1;jettySize=auto;html=1;strokeWidth=2;endArrow=none;endFill=0;" edge="1" parent="1" source="RFZZks00Yh5t1Ho3ZFFj-61">
          <mxGeometry relative="1" as="geometry">
            <mxPoint x="291.25" y="473" as="targetPoint" />
          </mxGeometry>
        </mxCell>
        <mxCell id="RFZZks00Yh5t1Ho3ZFFj-61" value="&lt;font style=&quot;font-size: 10px;&quot;&gt;P_Prozessparameter (SET)&lt;/font&gt;" style="rounded=0;whiteSpace=wrap;html=1;fillColor=#FFE599;strokeColor=#d6b656;fontSize=14;" vertex="1" parent="1">
          <mxGeometry x="315.25" y="458" width="220" height="30" as="geometry" />
        </mxCell>
        <mxCell id="RFZZks00Yh5t1Ho3ZFFj-63" value="1" style="ellipse;whiteSpace=wrap;html=1;aspect=fixed;fontSize=6;fillColor=#f5f5f5;fontColor=#333333;strokeColor=#666666;" vertex="1" parent="1">
          <mxGeometry x="286.25" y="203" width="10" height="10" as="geometry" />
        </mxCell>
        <mxCell id="RFZZks00Yh5t1Ho3ZFFj-65" value="" style="endArrow=none;html=1;rounded=0;fillColor=#dae8fc;strokeColor=#6c8ebf;" edge="1" parent="1">
          <mxGeometry width="50" height="50" relative="1" as="geometry">
            <mxPoint x="281.25" y="158" as="sourcePoint" />
            <mxPoint x="231.25" y="158" as="targetPoint" />
          </mxGeometry>
        </mxCell>
        <mxCell id="RFZZks00Yh5t1Ho3ZFFj-66" value="" style="endArrow=none;html=1;rounded=0;fillColor=#dae8fc;strokeColor=#6c8ebf;" edge="1" parent="1">
          <mxGeometry width="50" height="50" relative="1" as="geometry">
            <mxPoint x="281.25" y="218" as="sourcePoint" />
            <mxPoint x="271.25" y="218" as="targetPoint" />
          </mxGeometry>
        </mxCell>
        <mxCell id="RFZZks00Yh5t1Ho3ZFFj-67" value="" style="endArrow=none;html=1;rounded=0;fillColor=#dae8fc;strokeColor=#6c8ebf;" edge="1" parent="1">
          <mxGeometry width="50" height="50" relative="1" as="geometry">
            <mxPoint x="271.25" y="218" as="sourcePoint" />
            <mxPoint x="271.25" y="180" as="targetPoint" />
          </mxGeometry>
        </mxCell>
        <mxCell id="RFZZks00Yh5t1Ho3ZFFj-69" value="" style="endArrow=none;html=1;rounded=0;fillColor=#dae8fc;strokeColor=#6c8ebf;" edge="1" parent="1">
          <mxGeometry width="50" height="50" relative="1" as="geometry">
            <mxPoint x="271.25" y="325" as="sourcePoint" />
            <mxPoint x="271.25" y="310" as="targetPoint" />
          </mxGeometry>
        </mxCell>
        <mxCell id="RFZZks00Yh5t1Ho3ZFFj-70" value="" style="endArrow=none;html=1;rounded=0;fillColor=#dae8fc;strokeColor=#6c8ebf;" edge="1" parent="1">
          <mxGeometry width="50" height="50" relative="1" as="geometry">
            <mxPoint x="271.25" y="300" as="sourcePoint" />
            <mxPoint x="271.25" y="280" as="targetPoint" />
          </mxGeometry>
        </mxCell>
        <mxCell id="RFZZks00Yh5t1Ho3ZFFj-71" value="" style="endArrow=none;html=1;rounded=0;fillColor=#dae8fc;strokeColor=#6c8ebf;" edge="1" parent="1">
          <mxGeometry width="50" height="50" relative="1" as="geometry">
            <mxPoint x="266.25" y="280" as="sourcePoint" />
            <mxPoint x="271.25" y="280" as="targetPoint" />
          </mxGeometry>
        </mxCell>
        <mxCell id="RFZZks00Yh5t1Ho3ZFFj-72" value="" style="endArrow=none;html=1;rounded=0;exitX=0.556;exitY=1.002;exitDx=0;exitDy=0;exitPerimeter=0;endFill=0;startArrow=classic;startFill=1;endSize=9;startSize=3;fillColor=#dae8fc;strokeColor=#6c8ebf;" edge="1" parent="1" source="RFZZks00Yh5t1Ho3ZFFj-28">
          <mxGeometry width="50" height="50" relative="1" as="geometry">
            <mxPoint x="251.25" y="279.91" as="sourcePoint" />
            <mxPoint x="256.25" y="279.91" as="targetPoint" />
          </mxGeometry>
        </mxCell>
        <mxCell id="RFZZks00Yh5t1Ho3ZFFj-73" value="" style="endArrow=none;html=1;rounded=0;fillColor=#dae8fc;strokeColor=#6c8ebf;" edge="1" parent="1">
          <mxGeometry width="50" height="50" relative="1" as="geometry">
            <mxPoint x="611.25" y="170" as="sourcePoint" />
            <mxPoint x="591.25" y="170" as="targetPoint" />
          </mxGeometry>
        </mxCell>
        <mxCell id="RFZZks00Yh5t1Ho3ZFFj-76" value="" style="group" vertex="1" connectable="0" parent="1">
          <mxGeometry x="301.25" y="500" width="210" height="50" as="geometry" />
        </mxCell>
        <mxCell id="RFZZks00Yh5t1Ho3ZFFj-77" value="2: Koordinationsschnittstelle" style="text;html=1;align=left;verticalAlign=middle;whiteSpace=wrap;rounded=0;fontSize=8;fontStyle=2" vertex="1" parent="RFZZks00Yh5t1Ho3ZFFj-76">
          <mxGeometry y="20" width="140" height="10" as="geometry" />
        </mxCell>
        <mxCell id="RFZZks00Yh5t1Ho3ZFFj-79" value="1: Interne Schnittstelle von Prozessmodell" style="text;html=1;align=left;verticalAlign=middle;whiteSpace=wrap;rounded=0;fontSize=8;fontStyle=2" vertex="1" parent="RFZZks00Yh5t1Ho3ZFFj-76">
          <mxGeometry width="210" height="20" as="geometry" />
        </mxCell>
        <mxCell id="RFZZks00Yh5t1Ho3ZFFj-80" value="" style="endArrow=none;html=1;rounded=0;fillColor=#fff2cc;strokeColor=#d6b656;exitX=0;exitY=0.792;exitDx=0;exitDy=0;exitPerimeter=0;strokeWidth=1;dashed=1;entryX=1;entryY=0.793;entryDx=0;entryDy=0;entryPerimeter=0;" edge="1" parent="1">
          <mxGeometry width="50" height="50" relative="1" as="geometry">
            <mxPoint x="301.25" y="356.9999999999999" as="sourcePoint" />
            <mxPoint x="541.25" y="357.2900000000001" as="targetPoint" />
          </mxGeometry>
        </mxCell>
        <mxCell id="RFZZks00Yh5t1Ho3ZFFj-81" value="&lt;u&gt;Prozessmethoden&lt;/u&gt; (intern)" style="text;html=1;align=left;verticalAlign=middle;whiteSpace=wrap;rounded=0;fontStyle=0" vertex="1" parent="1">
          <mxGeometry x="311.25" y="356" width="180" height="30" as="geometry" />
        </mxCell>
        <mxCell id="RFZZks00Yh5t1Ho3ZFFj-82" value="&lt;font style=&quot;font-size: 10px;&quot;&gt;M_Prozessmethoden&lt;/font&gt;" style="rounded=0;whiteSpace=wrap;html=1;fillColor=#FFE599;strokeColor=#d6b656;fontSize=14;" vertex="1" parent="1">
          <mxGeometry x="311.25" y="387" width="220" height="30" as="geometry" />
        </mxCell>
        <mxCell id="RFZZks00Yh5t1Ho3ZFFj-83" value="" style="endArrow=none;html=1;rounded=0;fillColor=#dae8fc;strokeColor=#6c8ebf;" edge="1" parent="1">
          <mxGeometry width="50" height="50" relative="1" as="geometry">
            <mxPoint x="561.25" y="248" as="sourcePoint" />
            <mxPoint x="591.25" y="248" as="targetPoint" />
          </mxGeometry>
        </mxCell>
        <mxCell id="RFZZks00Yh5t1Ho3ZFFj-87" value="1" style="ellipse;whiteSpace=wrap;html=1;aspect=fixed;fontSize=6;fillColor=#f5f5f5;fontColor=#333333;strokeColor=#666666;" vertex="1" parent="1">
          <mxGeometry x="550.25" y="230" width="10" height="10" as="geometry" />
        </mxCell>
        <mxCell id="RFZZks00Yh5t1Ho3ZFFj-90" value="" style="endArrow=none;html=1;rounded=0;fillColor=#dae8fc;strokeColor=#6c8ebf;" edge="1" parent="1">
          <mxGeometry width="50" height="50" relative="1" as="geometry">
            <mxPoint x="271.25" y="180" as="sourcePoint" />
            <mxPoint x="231.25" y="180" as="targetPoint" />
          </mxGeometry>
        </mxCell>
        <mxCell id="RFZZks00Yh5t1Ho3ZFFj-91" value="" style="rounded=0;whiteSpace=wrap;html=1;fillColor=#fff2cc;strokeColor=#d6b656;" vertex="1" parent="1">
          <mxGeometry x="301.25" y="560" width="240" height="90" as="geometry" />
        </mxCell>
        <mxCell id="RFZZks00Yh5t1Ho3ZFFj-94" style="edgeStyle=orthogonalEdgeStyle;rounded=0;orthogonalLoop=1;jettySize=auto;html=1;entryX=0;entryY=0.5;entryDx=0;entryDy=0;endSize=4;" edge="1" parent="1" source="RFZZks00Yh5t1Ho3ZFFj-92" target="RFZZks00Yh5t1Ho3ZFFj-93">
          <mxGeometry relative="1" as="geometry" />
        </mxCell>
        <mxCell id="RFZZks00Yh5t1Ho3ZFFj-92" value="&lt;font&gt;BEREIT&lt;/font&gt;" style="rounded=0;whiteSpace=wrap;html=1;fillColor=#FFE599;strokeColor=#d6b656;fontSize=10;" vertex="1" parent="1">
          <mxGeometry x="311.25" y="590" width="78.75" height="20" as="geometry" />
        </mxCell>
        <mxCell id="RFZZks00Yh5t1Ho3ZFFj-97" style="edgeStyle=orthogonalEdgeStyle;rounded=0;orthogonalLoop=1;jettySize=auto;html=1;entryX=0.5;entryY=1;entryDx=0;entryDy=0;" edge="1" parent="1" source="RFZZks00Yh5t1Ho3ZFFj-93" target="RFZZks00Yh5t1Ho3ZFFj-92">
          <mxGeometry relative="1" as="geometry">
            <Array as="points">
              <mxPoint x="479" y="640" />
              <mxPoint x="351" y="640" />
            </Array>
          </mxGeometry>
        </mxCell>
        <mxCell id="RFZZks00Yh5t1Ho3ZFFj-93" value="&lt;font&gt;LAUFEND&lt;/font&gt;" style="rounded=0;whiteSpace=wrap;html=1;fillColor=#FFE599;strokeColor=#d6b656;fontSize=10;" vertex="1" parent="1">
          <mxGeometry x="440" y="590" width="78.75" height="20" as="geometry" />
        </mxCell>
        <mxCell id="RFZZks00Yh5t1Ho3ZFFj-95" value="" style="ellipse;html=1;shape=startState;fillColor=#000000;strokeColor=#ff0000;container=0;" vertex="1" parent="1">
          <mxGeometry x="311.25" y="565" width="20" height="20" as="geometry" />
        </mxCell>
        <mxCell id="RFZZks00Yh5t1Ho3ZFFj-96" value="" style="edgeStyle=orthogonalEdgeStyle;html=1;verticalAlign=bottom;endArrow=classic;endSize=4;strokeColor=#ff0000;rounded=0;endFill=1;entryX=0.5;entryY=0;entryDx=0;entryDy=0;exitX=1;exitY=0.5;exitDx=0;exitDy=0;" edge="1" parent="1" source="RFZZks00Yh5t1Ho3ZFFj-95" target="RFZZks00Yh5t1Ho3ZFFj-92">
          <mxGeometry relative="1" as="geometry">
            <mxPoint x="310.73" y="630" as="targetPoint" />
            <Array as="points">
              <mxPoint x="351" y="575" />
            </Array>
          </mxGeometry>
        </mxCell>
        <mxCell id="RFZZks00Yh5t1Ho3ZFFj-98" value="&lt;span style=&quot;font-size: 8px;&quot;&gt;&lt;i&gt;Beendet OR Resetten&lt;/i&gt;&lt;/span&gt;" style="text;whiteSpace=wrap;html=1;spacing=0;" vertex="1" parent="1">
          <mxGeometry x="377.63" y="620" width="80" height="20" as="geometry" />
        </mxCell>
        <mxCell id="RFZZks00Yh5t1Ho3ZFFj-99" value="&lt;span style=&quot;font-size: 8px;&quot;&gt;&lt;i&gt;Start&lt;/i&gt;&lt;/span&gt;" style="text;whiteSpace=wrap;html=1;spacing=0;" vertex="1" parent="1">
          <mxGeometry x="405.25" y="581" width="30" height="20" as="geometry" />
        </mxCell>
      </root>
    </mxGraphModel>
  </diagram>
</mxfile>
